<svg height="299.872" viewBox="0 0 241.161 299.872" width="241.161" xmlns="http://www.w3.org/2000/svg"><path d="m143.842 611.037c-1.8 7.942-11.059 6.655-23.508.948-14.866-6.817-35.976-30.654-31.592-49.676v-.009a21.512 21.512 0 0 1 1.855-5.058c10.137-19.6 50.72 34.947 52.712 43.893.944 4.24 1.081 7.494.533 9.902z" fill="#16919b" transform="translate(-88.156 -445.439)"/><path d="m143.842 624.831c-1.8 7.942-11.059 6.655-23.508.948-14.866-6.817-35.976-30.654-31.592-49.676 6.558 16.371 22.029 42.641 55.1 48.728z" fill="#0e595b" transform="translate(-88.156 -459.233)"/><path d="m123.737 568.66c3.519 3.829 8.738 10.708 7.509 12.014-1.255 1.334-9.268-3.108-14.717-9.611-3.721-4.44-6.931-10.656-5.707-11.714 1.385-1.197 8.326 4.317 12.915 9.311z" fill="#b1eced" transform="translate(-101.546 -449.119)"/><path d="m377.27 703.372c0 33.118-23.234 72.018-60.147 72.018-22.874 0-41.7-14-52.7-32.727a75.312 75.312 0 0 1 -10.583-37.674c0-33.928 37.03-32.311 60.5-32.311 25.738 0 56.29-1.972 61.987 22a37.073 37.073 0 0 1 .943 8.694z" fill="#16919b" transform="translate(-187.194 -516.937)"/><path d="m393 736.119c0 33.118-23.234 72.018-60.147 72.018-22.874 0-41.7-14-52.7-32.727 22.925 10.791 88.227 33.143 111.9-47.988a37.073 37.073 0 0 1 .947 8.697z" fill="#0e595b" transform="translate(-202.921 -549.685)"/><path d="m282.347 709.327c-4.8 7.819-1.4 18.945 6.83 23.313 8.7 4.617 20.543.478 23.779-8.7 3.074-8.718-2.85-18.49-11.336-21.23-6.806-2.198-15.286.117-19.273 6.617z" fill="#b1eced" transform="translate(-202.921 -534.43)"/><path d="m622.413 733.387c-.37 15.221-3.918 24.511-14.019 19.676a31.235 31.235 0 0 1 -5.8-3.781c-7.167-5.717-38.388-66.108-16.325-66.625 5.7-.132 10.9 2 15.464 5.545 13.098 10.172 21.005 31.956 20.68 45.185z" fill="#16919b" transform="translate(-381.262 -522.923)"/><path d="m656.934 741.635c-.37 15.22-3.918 24.511-14.019 19.676 3.269-8.049 6.168-26.614-6.665-64.861 13.102 10.172 21.009 31.957 20.684 45.185z" fill="#0e595b" transform="translate(-415.783 -531.171)"/><path d="m600.566 731.7c4.08 9.459 10.157 25.922 8.41 26.732-1.576.73-9.731-11.175-14.116-24.929-2.443-7.662-3.97-16.7-2.7-17.12 1.572-.531 7.14 12.37 8.406 15.317z" fill="#b1eced" transform="translate(-389.153 -543.074)"/><g transform="translate(42.014)"><path d="m236.718 440.155a23.911 23.911 0 0 1 -5.043-7.4 22.958 22.958 0 0 1 15.889-31.8 23.76 23.76 0 0 1 5.9-.654c4.598 26.256-16.746 39.854-16.746 39.854z" fill="#b1eced" transform="translate(-214.774 -354.142)"/><path d="m239.666 440.155a23.911 23.911 0 0 1 -5.043-7.4c2.68-4.678 5.372-9.658 8.028-14.939 2.926-5.818 5.534-11.458 7.861-16.866a23.76 23.76 0 0 1 5.9-.654z" fill="#0e595b" transform="translate(-217.722 -354.142)"/><path d="m374.964 428.613c-2.367 32.813-77.6 43.655-112.789 23.822-9.777-5.51-16.462-13.391-17.638-23.822-5.408-47.978 26.356-91.906 62.849-91.906 13.229 0 28.763 5.063 41.627 16.28 16.487 14.359 28.612 38.813 25.951 75.626z" fill="#16919b" transform="translate(-223.287 -316.133)"/><path d="m215.987 366.181a34.087 34.087 0 0 1 -11.6-11.721c-4.557-7.421-8.776-20.308-3-39.555l3.4 1.02c-4.308 14.361-3.457 26.647 2.53 36.519a31.186 31.186 0 0 0 10.352 10.612z" fill="#b1eced" transform="translate(-196.178 -303.1)"/><circle cx="8.26" cy="8.26" fill="#16919b" r="8.26"/><path d="m381.659 454.758c0 6.584-7.228 10.639-16.543 13.046-9.813 2.539-21.942 3.254-30.386 3.173-12.088-.117-35.4-2.215-43.812-9.873a8.482 8.482 0 0 1 -3.122-6.346 25.415 25.415 0 0 1 7.775-18.267 26.853 26.853 0 0 1 18.778-7.562h40.756a26.773 26.773 0 0 1 20.968 9.98 25.276 25.276 0 0 1 5.586 15.849z" fill="#0e595b" transform="translate(-249.506 -371.259)"/><path d="m386.3 469.589c0 6.584-7.228 10.639-16.544 13.046-9.813 2.539-21.942 3.254-30.385 3.173-12.088-.117-35.4-2.215-43.812-9.873 23.944-.72 64.643-4.648 85.155-22.195a25.276 25.276 0 0 1 5.586 15.849z" fill="#0b3a3a" transform="translate(-254.146 -386.09)"/><path d="m367.354 574.76a28.2 28.2 0 0 1 -18.109-6.28c-7.826-6.341-10.314-15.246-7.806-15.443 3.9-.3 13.214 4.359 23.726 4.359 12.078 0 20.309-3.041 26.518-3.294.279-.015.547-.021.816-.021 6.301-.001-1.414 20.679-25.145 20.679z" fill="#0e595b" transform="translate(-281.01 -445.437)"/><path d="m402.072 452.806c-2.367 32.813-77.6 43.655-112.789 23.822 21.5 3.568 85.5 11.4 97.02-19.432 9.9-26.518-2.341-61.9-10.182-80.016 16.488 14.358 28.612 38.808 25.951 75.626z" fill="#0e595b" transform="translate(-250.395 -340.325)"/><path d="m296.7 377.47c1.944 2.565 13.9-2.8 21.926-8.71 7.694-5.662 15.549-14.593 13.816-17.12-1.539-2.245-10.367.955-15.919 3.9-12.423 6.607-21.939 19.136-19.823 21.93z" fill="#b1eced" transform="translate(-254.653 -324.608)"/><path d="m253.82 526.061c.285 8.766 5.641 17.087 7.808 16.52 2.274-.6 1.349-11.065.3-16.82-.3-1.652-2.142-11.757-4.505-11.714-1.859.034-3.787 6.336-3.603 12.014z" fill="#b1eced" transform="translate(-229.189 -422.139)"/><path d="m465.167 461.712a11.873 11.873 0 1 1 -1.042-4.853 11.863 11.863 0 0 1 1.042 4.853z" fill="#0b3a3a" transform="translate(-341.346 -383.764)"/><path d="m450.289 446.836a11.868 11.868 0 1 1 -11.864 11.864 11.854 11.854 0 0 1 11.865-11.863zm0-2.027a13.89 13.89 0 1 0 13.89 13.89 13.719 13.719 0 0 0 -1.222-5.688 13.9 13.9 0 0 0 -12.668-8.2z" fill="#b1eced" transform="translate(-338.333 -380.751)"/><path d="m464.132 456.833c-4.428 10.706-15.413 10.387-21.873 9.142a11.858 11.858 0 0 1 21.873-9.142z" fill="#0e595b" transform="translate(-341.364 -383.761)"/><circle cx="107.501" cy="74.01" fill="#b1eced" r="3.938"/><path d="m480.218 485.012c.644.434-.233 4.565-3.169 6.146-2.609 1.4-6.065.376-6.146-.384-.059-.559 1.732-.712 4.729-2.526 3.154-1.91 4.138-3.537 4.586-3.236z" fill="#b1eced" transform="translate(-358.958 -404.761)"/><path d="m334.334 461.71a11.872 11.872 0 1 1 -1.041-4.853 11.862 11.862 0 0 1 1.041 4.853z" fill="#0b3a3a" transform="translate(-263.141 -383.763)"/><path d="m319.457 446.834a11.867 11.867 0 1 1 -11.865 11.866 11.853 11.853 0 0 1 11.865-11.863zm0-2.027a13.89 13.89 0 1 0 13.89 13.89 13.718 13.718 0 0 0 -1.221-5.688 13.9 13.9 0 0 0 -12.669-8.2z" fill="#b1eced" transform="translate(-260.128 -380.75)"/><path d="m333.3 456.831c-4.428 10.706-15.413 10.387-21.874 9.142a11.858 11.858 0 0 1 21.874-9.142z" fill="#0e595b" transform="translate(-263.158 -383.76)"/><g fill="#b1eced"><circle cx="54.874" cy="74.009" r="3.938"/><path d="m349.386 485.01c.644.433-.233 4.565-3.169 6.146-2.609 1.4-6.066.376-6.146-.384-.059-.559 1.732-.712 4.729-2.526 3.154-1.91 4.138-3.537 4.586-3.236z" transform="translate(-280.753 -404.76)"/><path d="m371.965 434.943c.115.788-5.216 2.644-10.737 3.154-8.958.826-17.166-2.01-17.045-3 .055-.456 5.719-.51 17.045-.6 9.099-.077 10.672.03 10.737.446z" transform="translate(-283.21 -374.572)"/><circle cx="4.432" cy="4.432" r="4.432" transform="matrix(.951 -.31 .31 .951 1.503 3.208)"/></g></g><path d="m649.44 318.977-8.125-1.683v-.005z" fill="#bbe1f4" transform="translate(-418.811 -304.526)"/><ellipse cx="128.556" cy="283.246" fill="#b1eced" rx="64.126" ry="16.626"/></svg>