<svg height="33.678" viewBox="0 0 42.866 33.678" width="42.866" xmlns="http://www.w3.org/2000/svg"><g fill="#16919b" transform="translate(-193.174 -156.799)"><path d="m203.893 178.23a10.716 10.716 0 0 0 10.463-8.42h7.144v6.89h4.593v-6.888h4.593a.766.766 0 0 1 .765.766v6.122h4.593v-6.123a5.358 5.358 0 0 0 -5.358-5.358h-16.33a10.716 10.716 0 1 0 -10.463 13.012zm0-16.839a6.124 6.124 0 1 1 -4.33 1.794 6.124 6.124 0 0 1 4.33-1.794z"/><path d="m382.591 371.9a2.3 2.3 0 1 1 -2.3-2.3 2.3 2.3 0 0 1 2.3 2.3" opacity=".3" transform="translate(-159.563 -183.718)"/><path d="m214.591 371.9a2.3 2.3 0 1 1 -2.3-2.3 2.3 2.3 0 0 1 2.3 2.3" opacity=".3" transform="translate(-14.525 -183.718)"/><path d="m298.591 371.9a2.3 2.3 0 1 1 -2.3-2.3 2.3 2.3 0 0 1 2.3 2.3" transform="translate(-87.044 -183.718)"/><path d="m466.591 371.9a2.3 2.3 0 1 1 -2.3-2.3 2.3 2.3 0 0 1 2.3 2.3" transform="translate(-232.082 -183.718)"/></g></svg>