<svg height="40" viewBox="0 0 28.213 40" width="28.213" xmlns="http://www.w3.org/2000/svg"><g fill="#16919b"><path d="m227.187 154.125h-17.361a5.425 5.425 0 0 1 -5.426-5.425v-24.784a5.426 5.426 0 0 1 5.426-5.426h17.362a5.425 5.425 0 0 1 5.425 5.426v24.784a5.425 5.425 0 0 1 -5.425 5.425zm-17.361-33.465a3.256 3.256 0 0 0 -3.255 3.255v24.785a3.255 3.255 0 0 0 3.255 3.255h17.362a3.255 3.255 0 0 0 3.255-3.255v-24.784a3.256 3.256 0 0 0 -3.255-3.255z" transform="translate(-204.4 -114.125)"/><path d="m205.482 85.852a1.085 1.085 0 0 1 -1.085-1.085v-3.711a5.47 5.47 0 0 1 3.06-4.9 7.727 7.727 0 0 1 2.583-.608h.586l3.32-.542 10.854-1.568a5.447 5.447 0 0 1 5.642 5.447 1.085 1.085 0 1 1 -2.17 0 3.256 3.256 0 0 0 -3.255-3.255l-10.851 1.541-3.255.456h-.651a5.907 5.907 0 0 0 -1.888.413 3.276 3.276 0 0 0 -1.8 3.017v3.711a1.085 1.085 0 0 1 -1.085 1.085z" transform="translate(-204.397 -73.435)"/><g opacity=".3" transform="translate(6.728 14.804)"><path d="m281.218 241a7.379 7.379 0 1 1 5.217-2.161 7.378 7.378 0 0 1 -5.217 2.161zm0-12.587a5.208 5.208 0 1 0 3.683 1.526 5.209 5.209 0 0 0 -3.683-1.526z" transform="translate(-273.839 -226.239)"/><path d="m339.886 241a1.085 1.085 0 0 1 -1.085-1.085v-12.592a1.085 1.085 0 1 1 2.17 0v12.587a1.085 1.085 0 0 1 -1.085 1.09z" transform="translate(-332.507 -226.238)"/><path d="m297.809 270.972h-10.109a1.085 1.085 0 1 1 0-2.17h10.135a1.085 1.085 0 1 1 0 2.17z" transform="translate(-285.374 -264.678)"/><path d="m297.809 315.772h-10.109a1.085 1.085 0 1 1 0-2.17h10.135a1.085 1.085 0 1 1 0 2.17z" transform="translate(-285.374 -305.138)"/></g><path d="m285.487 181.368h-13.021a1.085 1.085 0 0 1 0-2.17h13.021a1.085 1.085 0 0 1 0 2.17z" transform="translate(-264.891 -168.951)"/><path d="m310.648 405.368h-7.048a1.085 1.085 0 0 1 0-2.17h7.053a1.085 1.085 0 0 1 0 2.17z" transform="translate(-293.004 -371.249)"/></g></svg>