<svg height="22.952" viewBox="0 0 27.733 22.952" width="27.733" xmlns="http://www.w3.org/2000/svg"><g fill="#16919b" transform="translate(-187.6 -106.397)"><path d="m281.025 192.311a1.913 1.913 0 1 1 -1.912-1.913 1.912 1.912 0 0 1 1.912 1.913" transform="translate(-81.949 -76.828)"/><path d="m381.825 192.311a1.913 1.913 0 1 1 -1.913-1.913 1.913 1.913 0 0 1 1.913 1.913" transform="translate(-174.142 -76.828)"/><path d="m187.6 113.092v4.782a6.694 6.694 0 0 0 6.694 6.694h5.26v2.869a1.912 1.912 0 1 0 3.825 0v-2.869h5.26a6.694 6.694 0 0 0 6.694-6.694v-4.782a6.694 6.694 0 0 0 -6.694-6.695h-14.345a6.694 6.694 0 0 0 -6.694 6.695zm3.825 0a2.87 2.87 0 0 1 2.869-2.869h14.345a2.87 2.87 0 0 1 2.869 2.869v4.782a2.869 2.869 0 0 1 -2.869 2.869h-14.345a2.869 2.869 0 0 1 -2.869-2.869z"/></g></svg>