<svg height="40" viewBox="0 0 42.856 40" width="42.856" xmlns="http://www.w3.org/2000/svg"><g fill="#16919b"><path d="m105.343 240.506a3.67 3.67 0 1 1 -3.67-3.67 3.67 3.67 0 0 1 3.67 3.67" opacity=".3" transform="translate(-98.002 -220.507)"/><path d="m450.169 48.936a3.67 3.67 0 1 1 -3.67-3.67 3.67 3.67 0 0 1 3.67 3.67" transform="translate(-413.507 -45.226)"/><path d="m139.95 59.5c.035 0 .069-.005.1-.005a5.271 5.271 0 0 1 1.539.23 18.332 18.332 0 0 1 22.671-12.594 5.27 5.27 0 0 1 .665-1.5 19.958 19.958 0 0 0 -24.974 13.869z" transform="translate(-136.383 -44.799)"/><path d="m450.169 432.076a3.67 3.67 0 1 1 -3.67-3.67 3.67 3.67 0 0 1 3.67 3.67" transform="translate(-413.507 -395.787)"/><path d="m266.143 167.65-.978.615a.934.934 0 0 1 -.86.066.925.925 0 0 1 -.548-.649l-.257-1.128a1.927 1.927 0 0 0 -3.758 0l-.258 1.13a.94.94 0 0 1 -1.4.582l-.982-.617a1.927 1.927 0 0 0 -2.657 2.657l.615.978a.935.935 0 0 1 .066.86.925.925 0 0 1 -.649.548l-1.127.258a1.927 1.927 0 0 0 0 3.757l1.127.257a.94.94 0 0 1 .583 1.409l-.615.978a1.927 1.927 0 0 0 2.657 2.657l.978-.615a.94.94 0 0 1 1.409.583l.257 1.127a1.927 1.927 0 0 0 3.758 0l.257-1.127a.94.94 0 0 1 1.409-.583l.978.615a1.927 1.927 0 0 0 2.657-2.657l-.615-.978a.936.936 0 0 1 -.065-.863.919.919 0 0 1 .645-.545l1.131-.258a1.927 1.927 0 0 0 0-3.757l-1.128-.258a.939.939 0 0 1 -.583-1.409l.615-.978a1.927 1.927 0 0 0 -2.657-2.657zm-4.523 10.85a3.67 3.67 0 1 1 3.671-3.67 3.674 3.674 0 0 1 -3.671 3.67z" transform="translate(-238.764 -154.83)"/><path d="m159.257 352.931a18.455 18.455 0 0 1 -17.65-13.3 5.274 5.274 0 0 1 -1.536.229c-.034 0-.067 0-.1 0a19.954 19.954 0 0 0 24.976 13.868 5.279 5.279 0 0 1 -.665-1.5 18.354 18.354 0 0 1 -5.023.708z" transform="translate(-136.401 -314.56)"/><path d="m527.069 121.545a18.358 18.358 0 0 1 0 24.629 5.32 5.32 0 0 1 1.054 1.267 20 20 0 0 0 0-27.163 5.335 5.335 0 0 1 -1.054 1.267z" opacity=".3" transform="translate(-490.584 -113.86)"/></g></svg>