<svg height="39.935" viewBox="0 0 38.884 39.935" width="38.884" xmlns="http://www.w3.org/2000/svg"><g fill="#16919b"><path d="m148.234 251.7a4.9 4.9 0 0 0 4.782-3.888h4.884a4.916 4.916 0 1 0 9.458-2.627l8.67-8.67a4.476 4.476 0 0 0 1.208.158 4.939 4.939 0 1 0 -4.939-4.939 4.857 4.857 0 0 0 1.734 3.731l-7.777 7.882a5.009 5.009 0 0 0 -3.521-1.471 4.9 4.9 0 0 0 -4.782 3.888h-4.887a4.915 4.915 0 0 0 -9.721 1.051 4.844 4.844 0 0 0 4.887 4.887zm29.005-22.752a2.837 2.837 0 1 1 -2.837 2.837 2.859 2.859 0 0 1 2.837-2.837zm-14.5 15.028a2.837 2.837 0 1 1 -2.837 2.837 2.825 2.825 0 0 1 2.835-2.832zm-14.5 0a2.837 2.837 0 1 1 -2.837 2.837 2.825 2.825 0 0 1 2.832-2.832z" transform="translate(-143.295 -211.823)"/><path d="m147.738 77.077a4.939 4.939 0 1 0 -4.939-4.939 4.934 4.934 0 0 0 4.939 4.939zm0-7.724a2.837 2.837 0 1 1 -2.838 2.837 2.825 2.825 0 0 1 2.838-2.837z" transform="translate(-142.799 -67.198)"/><path d="m147.738 92.614a4.934 4.934 0 0 0 4.939-4.939 4.8 4.8 0 0 0 -.893-2.837l7.934-7.934a4.713 4.713 0 0 0 2.522.736 4.9 4.9 0 0 0 4.782-3.888h4.887a4.94 4.94 0 1 0 0-2.1h-4.887a4.915 4.915 0 0 0 -9.722 1.048 5.107 5.107 0 0 0 .841 2.785l-7.934 7.934a4.932 4.932 0 1 0 -2.47 9.2zm29.005-22.752a2.837 2.837 0 1 1 -2.837 2.837 2.894 2.894 0 0 1 2.837-2.837zm-14.5 0a2.837 2.837 0 1 1 -2.843 2.838 2.825 2.825 0 0 1 2.841-2.838zm-14.5 14.976a2.837 2.837 0 1 1 -2.837 2.837 2.825 2.825 0 0 1 2.837-2.837z" opacity=".3" transform="translate(-142.799 -67.707)"/><path d="m302.3 227.36a4.939 4.939 0 1 0 4.939 4.939 4.934 4.934 0 0 0 -4.939-4.939zm0 7.777a2.837 2.837 0 1 1 2.837-2.837 2.825 2.825 0 0 1 -2.837 2.837z" transform="translate(-282.856 -212.332)"/><path d="m461.8 392.458a4.939 4.939 0 1 0 -4.939 4.939 4.934 4.934 0 0 0 4.939-4.939zm-4.939 2.785a2.837 2.837 0 1 1 2.837-2.837 2.826 2.826 0 0 1 -2.837 2.837z" opacity=".3" transform="translate(-422.913 -357.463)"/></g></svg>