<svg height="39" viewBox="0 0 42.122 39" width="42.122" xmlns="http://www.w3.org/2000/svg"><g fill="#16919b"><g opacity=".3" transform="translate(12.255 9.086)"><path d="m248.772 165.2a8.921 8.921 0 0 0 -4.613 6.849h2.749a15.242 15.242 0 0 1 1.864-6.849z" transform="translate(-244.159 -164.361)"/><path d="m405.016 269.92h-2.749a14.669 14.669 0 0 1 -1.864 6.85 8.845 8.845 0 0 0 4.613-6.85z" transform="translate(-387.403 -260.368)"/><path d="m248.776 277.329a15.24 15.24 0 0 1 -1.864-6.849h-2.749a9 9 0 0 0 4.613 6.849z" transform="translate(-244.163 -260.881)"/><path d="m405.012 172.049a8.845 8.845 0 0 0 -4.612-6.849 15.239 15.239 0 0 1 1.864 6.849z" transform="translate(-387.399 -164.361)"/><path d="m303.374 155.12c-1.771.885-3.029 4.333-3.215 7.688h3.215z" transform="translate(-295.5 -155.12)"/><path d="m361.2 277.61c1.771-.885 3.029-4.333 3.215-7.688h-3.215z" transform="translate(-351.462 -260.37)"/><path d="m361.2 155.12v7.688h3.215c-.186-3.355-1.444-6.756-3.215-7.688z" transform="translate(-351.462 -155.12)"/><path d="m303.374 277.61v-7.688h-3.215c.186 3.401 1.398 6.803 3.215 7.688z" transform="translate(-295.5 -260.37)"/></g><path d="m133.785 234.116a.907.907 0 0 0 -1.211.513 17.054 17.054 0 0 1 -2.609 4.193.86.86 0 0 0 -.233.559 23.883 23.883 0 0 0 1.211 8.294l-.466-.046a7.368 7.368 0 0 1 -5.824-3.867.98.98 0 0 0 -1.165-.466 16.355 16.355 0 0 1 -5.545.979 15.9 15.9 0 0 1 -15.842-15.1l1.491 1.864a.9.9 0 0 0 1.3.14.973.973 0 0 0 .373-.746.814.814 0 0 0 -.186-.559l-3.076-3.867a.991.991 0 0 0 -.7-.326.948.948 0 0 0 -.7.279l-3.441 3.54a.923.923 0 0 0 1.3 1.3l1.771-1.817a17.749 17.749 0 0 0 17.706 17.194 18 18 0 0 0 5.452-.839 9.256 9.256 0 0 0 6.9 4.193l1.957.186h.093a.973.973 0 0 0 .746-.373 1 1 0 0 0 .14-.885l-.373-.838a21.434 21.434 0 0 1 -1.3-7.828 17.362 17.362 0 0 0 2.7-4.426.963.963 0 0 0 -.466-1.258z" transform="translate(-96.882 -210.725)"/><path d="m190.311 61.3a.9.9 0 0 0 -1.3 0l-1.771 1.817a17.711 17.711 0 0 0 -34.014-6.384.93.93 0 0 0 1.724.7 15.856 15.856 0 0 1 30.427 5.452l-1.491-1.864a.9.9 0 0 0 -1.3-.14.973.973 0 0 0 -.373.746.813.813 0 0 0 .186.559l3.075 3.867a.991.991 0 0 0 .7.326h.047a.846.846 0 0 0 .652-.28l3.448-3.541a.848.848 0 0 0 0-1.259z" transform="translate(-148.469 -45.92)"/></g></svg>